# xmcd
#
# Track frame offsets:
#	150
#	16744
#	30512
#	38991
#	52433
#	62335
#	73889
#	81493
#	90945
#	103623
#	115817
#
# Disc length: 1735 seconds
#
# Revision: 0
# Processed by: cddbd v1.5.2PL0 Copyright (c) Steve Scherf et al.
# Submitted via: audiograbber 1.83.01
#
DISCID=8c06c50b
DTITLE=Various Artist - God's Country - 50 Years Of Country Gospel (Vol. 3)
DYEAR=2004
DGENRE=Country
TTITLE0=The Blackwood Brothers - Because He Lives
TTITLE1=Hovie Lister and The Statesmen - He Touched Me
TTITLE2=Masters V - The Uncloudy Day
TTITLE3=The Oak Ridge Boys - Lead Me To Calvary
TTITLE4=The Kingsmen Quartet - Because Of Him
TTITLE5=J.D. Sumner and The Stamps - I Must Tell Jesus
TTITLE6=The Lefevres - Amen Chorus
TTITLE7=Wendy Bagwell and The Sunliters - Silver And Gold
TTITLE8=The Gospel Brass - Meeting In The Air - Eastern Gate - Sweet By And By 
TTITLE8=/ I'll Fly Away
TTITLE9=The Speers - Lord Teach Me How To Pray
TTITLE10=The Blackwood Brothers - Sweet Hour Of Prayer
EXTD=
EXTT0=
EXTT1=
EXTT2=
EXTT3=
EXTT4=
EXTT5=
EXTT6=
EXTT7=
EXTT8=
EXTT9=
EXTT10=
PLAYORDER=
